<?xml version="1.0" encoding="utf-8"?>
<!-- Generator: Adobe Illustrator 20.1.0, SVG Export Plug-In . SVG Version: 6.00 Build 0)  -->
<svg version="1.1" id="Слой_1" xmlns="http://www.w3.org/2000/svg" xmlns:xlink="http://www.w3.org/1999/xlink" x="0px" y="0px"
	 viewBox="0 0 494 434" style="enable-background:new 0 0 494 434;" xml:space="preserve">
<style type="text/css">
	.st0{stroke:#000000;stroke-miterlimit:10;}
	.st1{font-family:'Arial';}
	.st2{font-size:20px;}
	.st3{opacity:0.7;}
	.st4{font-family:'Arial';}
	.st5{font-size:17px;}
	.st6{fill:#FF0000;}
	.st7{font-size:14px;}
	.st8{opacity:0.4;fill:#FFFFFF;stroke:#000000;stroke-width:1.0736;stroke-miterlimit:10;}
	.st9{opacity:0.6;fill:#FFFFFF;stroke:#000000;stroke-width:0.5643;stroke-miterlimit:10;}
	.st10{opacity:0.8;fill:#FFFFFF;stroke:#000000;stroke-width:0.2957;stroke-miterlimit:10;}
	.st11{opacity:0.25;fill:#FFFFFF;stroke:#000000;stroke-width:1.2451;stroke-miterlimit:10;}
	.st12{font-size:20.273px;}
	.st13{opacity:0.85;fill:none;stroke:#000000;stroke-width:0.2957;stroke-miterlimit:10;}
	.st14{fill:none;stroke:#FF0000;stroke-width:0.75;stroke-miterlimit:10;}
	.st15{opacity:0.7;fill:none;stroke:#000000;stroke-width:0.5;stroke-miterlimit:10;}
	.st16{font-size:11px;}
</style>
<text transform="matrix(1 0 0 1 40 48.89)" class="st0 st1 st2">WITHDRAW FUNDS</text>
<text transform="matrix(1 0 0 1 40 185.5417)" class="st3"><tspan x="0" y="0" class="st4 st5">Tem 7300,59 EURO disponíveis nesta conta </tspan><tspan x="0" y="20.4" class="st4 st5">para levantar</tspan></text>
<text transform="matrix(1 0 0 1 40 105.89)"><tspan x="0" y="0" class="st6 st1 st7">* </tspan><tspan x="8.8" y="0" class="st1 st7"> Conta:</tspan></text>
<text transform="matrix(1 0 0 1 210 266.0417)" class="st1 st7">Razão para levantar (opcional):</text>
<text transform="matrix(1 0 0 1 40 236.89)"><tspan x="0" y="0" class="st6 st1 st7">* </tspan><tspan x="8.8" y="0" class="st1 st7"> Quantia: EURO</tspan></text>
<text transform="matrix(1 0 0 1 40 358.89)" class="st1 st7">Método de levantamento:</text>
<path class="st8" d="M447.7,145.2H43.3c-1.8,0-3.3-1.5-3.3-3.3v-22.3c0-1.8,1.5-3.3,3.3-3.3h404.3c1.8,0,3.3,1.5,3.3,3.3v22.3
	C451,143.7,449.5,145.2,447.7,145.2z"/>
<path class="st8" d="M445.5,315.9h-400c-3,0-5.5-2.5-5.5-5.5v-18c0-3,2.5-5.5,5.5-5.5h400c3,0,5.5,2.5,5.5,5.5v18
	C451,313.4,448.5,315.9,445.5,315.9z"/>
<path class="st9" d="M133.4,278.9H43.6c-2,0-3.6-1.6-3.6-3.6v-26.7c0-2,1.6-3.6,3.6-3.6h89.8c2,0,3.6,1.6,3.6,3.6v26.7
	C137,277.3,135.4,278.9,133.4,278.9z"/>
<path class="st10" d="M165.3,278.6h-23.1c-1,0-1.9-0.8-1.9-1.9v-29.8c0-1,0.8-1.9,1.9-1.9h23.1c1,0,1.9,0.8,1.9,1.9v29.8
	C167.2,277.7,166.4,278.6,165.3,278.6z"/>
<path class="st11" d="M449.3,411.9H44.8c-1.8,0-3.3-1.5-3.3-3.3v-32.5c0-1.8,1.5-3.3,3.3-3.3h404.5c1.8,0,3.3,1.5,3.3,3.3v32.5
	C452.5,410.4,451,411.9,449.3,411.9z"/>
<polygon points="435.4,390.4 441.6,390.4 438.5,397.2 "/>
<polygon points="435.4,128.9 441.6,128.9 438.5,135.7 "/>
<text transform="matrix(1 0 0 1 52.0005 269.8275)" class="st4 st12">7300.59</text>
<line class="st13" x1="167.2" y1="261.8" x2="140.3" y2="261.8"/>
<polyline class="st14" points="151,267.4 154,271.9 157,267.4 "/>
<polyline class="st14" points="151,256.1 154,251.6 157,256.1 "/>
<line class="st15" x1="439.5" y1="313.6" x2="449" y2="305.6"/>
<line class="st15" x1="442.8" y1="313.6" x2="448.4" y2="308.9"/>
<text transform="matrix(1 0 0 1 57.6665 398.89)" class="st4 st5">Transferência bancária</text>
<text transform="matrix(1 0 0 1 57.6665 306.5567)" class="st4 st5">A levantar os meus lucros :)</text>
<text transform="matrix(1 0 0 1 52.0005 133.6516)" class="st4 st16">8061             ( EURO ) MT4</text>
<g>
	<image style="overflow:visible;" width="98" height="86" xlink:href="CD397A00.png"  transform="matrix(1 0 0 1 46 87.89)">
	</image>
</g>
</svg>
