<svg width="15" height="9" viewBox="0 0 15 9" fill="none" xmlns="http://www.w3.org/2000/svg">
<path d="M14.7032 1.78341L8.05409 8.77189C7.97493 8.85484 7.88918 8.91346 7.79683 8.94774C7.70449 8.98258 7.60554 9 7.5 9C7.39446 9 7.29551 8.98258 7.20317 8.94774C7.11082 8.91346 7.02507 8.85484 6.94591 8.77189L0.277044 1.78341C0.0923479 1.58986 -3.34483e-07 1.34793 -3.47173e-07 1.0576C-3.59864e-07 0.767282 0.0989442 0.518435 0.296833 0.311061C0.494723 0.103687 0.725593 9.21958e-07 0.989446 9.10424e-07C1.2533 8.98891e-07 1.48417 0.103687 1.68206 0.311061L7.5 6.40783L13.3179 0.31106C13.5026 0.117512 13.7301 0.020737 14.0003 0.020737C14.271 0.020737 14.5053 0.124424 14.7032 0.331797C14.9011 0.539171 15 0.781106 15 1.0576C15 1.3341 14.9011 1.57604 14.7032 1.78341Z" fill="white"/>
</svg>
